<?xml version="1.0" standalone="no"?>
<!DOCTYPE svg PUBLIC "-//W3C//DTD SVG 20010904//EN"
 "http://www.w3.org/TR/2001/REC-SVG-20010904/DTD/svg10.dtd">
<svg version="1.0" xmlns="http://www.w3.org/2000/svg"
 width="200.000000pt" height="200.000000pt" viewBox="0 0 200.000000 200.000000"
 preserveAspectRatio="xMidYMid meet">
<metadata>
Created by potrace 1.10, written by Peter Selinger 2001-2011
</metadata>
<g transform="translate(0.000000,200.000000) scale(0.100000,-0.100000)"
fill="#CA9867" stroke="none">
<path d="M386 1564 c-11 -10 -16 -34 -16 -75 l0 -59 -59 0 c-41 0 -65 -5 -75
-16 -11 -10 -16 -34 -16 -75 l0 -59 -44 0 c-76 0 -76 0 -76 -255 0 -255 0
-255 76 -255 l44 0 0 -84 c0 -106 8 -116 91 -116 l59 0 0 -59 c0 -81 12 -91
105 -91 109 0 105 -9 105 241 l0 209 410 0 410 0 0 -209 c0 -250 -4 -241 105
-241 93 0 105 10 105 91 l0 59 59 0 c78 0 91 13 91 91 l0 59 44 0 c76 0 76 0
76 255 0 255 0 255 -76 255 l-44 0 0 84 c0 106 -8 116 -91 116 l-59 0 0 59 c0
81 -12 91 -105 91 -109 0 -105 9 -105 -241 l0 -209 -410 0 -410 0 0 209 c0
250 4 241 -105 241 -54 0 -78 -4 -89 -16z m134 -564 l0 -520 -45 0 -45 0 0
520 0 520 45 0 45 0 0 -520z m1030 0 l0 -520 -45 0 -45 0 0 520 0 520 45 0 45
0 0 -520z m-1180 0 l0 -370 -45 0 -45 0 0 370 0 370 45 0 45 0 0 -370z m1330
0 l0 -370 -45 0 -45 0 0 370 0 370 45 0 45 0 0 -370z m-1480 25 l0 -195 -30 0
-30 0 0 195 0 195 30 0 30 0 0 -195z m1600 -50 l0 -195 -30 0 -30 0 0 195 0
195 30 0 30 0 0 -195z m-420 25 l0 -70 -410 0 -410 0 0 70 0 70 410 0 410 0 0
-70z"/>
</g>
</svg>
